<svg id="Layer_1" data-name="Layer 1" xmlns="http://www.w3.org/2000/svg" xmlns:xlink="http://www.w3.org/1999/xlink" viewBox="0 0 1652.28 406.4"><defs><style>.cls-1{fill:#7ddae7;}.cls-2,.cls-3,.cls-4,.cls-5,.cls-6{fill-opacity:0.7;}.cls-2{fill:url(#linear-gradient);}.cls-3{fill:url(#linear-gradient-2);}.cls-4{fill:url(#linear-gradient-3);}.cls-5{fill:url(#linear-gradient-4);}.cls-6{fill:url(#linear-gradient-5);}.cls-13,.cls-7{fill:#fff;}.cls-8,.cls-9{fill:none;}.cls-10,.cls-11,.cls-13,.cls-8{stroke:#000;}.cls-8{stroke-linecap:square;stroke-linejoin:round;}.cls-13,.cls-8{stroke-width:3.24px;}.cls-9{stroke:#fff;stroke-linecap:round;stroke-width:2.59px;}.cls-11{stroke-width:5px;}.cls-12{fill-rule:evenodd;}</style><linearGradient id="linear-gradient" x1="104.6" y1="320.48" x2="104.6" y2="284.86" gradientTransform="matrix(1, 0, 0, -1, -4.24, 433.14)" gradientUnits="userSpaceOnUse"><stop offset="0" stop-color="#5ccede"/><stop offset="0.8" stop-color="#fff" stop-opacity="0"/></linearGradient><linearGradient id="linear-gradient-2" x1="63.16" y1="345.08" x2="63.16" y2="315.94" xlink:href="#linear-gradient"/><linearGradient id="linear-gradient-3" x1="92.62" y1="363.21" x2="92.62" y2="341.84" xlink:href="#linear-gradient"/><linearGradient id="linear-gradient-4" x1="107.51" y1="405.3" x2="107.51" y2="375.51" xlink:href="#linear-gradient"/><linearGradient id="linear-gradient-5" x1="82.58" y1="433.14" x2="82.58" y2="410.48" xlink:href="#linear-gradient"/></defs><title>skilslab_logo-Horizontal</title><circle class="cls-1" cx="100.36" cy="130.47" r="17.81"/><circle class="cls-2" cx="100.36" cy="130.47" r="17.81"/><circle class="cls-1" cx="58.92" cy="102.63" r="14.57"/><circle class="cls-3" cx="58.92" cy="102.63" r="14.57"/><ellipse class="cls-1" cx="88.38" cy="80.61" rx="11.01" ry="10.68"/><ellipse class="cls-4" cx="88.38" cy="80.61" rx="11.01" ry="10.68"/><circle class="cls-1" cx="103.27" cy="42.73" r="14.89"/><circle class="cls-5" cx="103.27" cy="42.73" r="14.89"/><circle class="cls-1" cx="78.35" cy="11.33" r="11.33"/><circle class="cls-6" cx="78.35" cy="11.33" r="11.33"/><path class="cls-7" d="M103.63,36.26c-1.3,4.14,1.18,5,2.59,4.86,6.73,1,9.93,7.33,10.68,10.36C123.05,32.7,105.25,31.08,103.63,36.26Z" transform="translate(-4.24 -2.91)"/><path class="cls-7" d="M94.24,74.78,89.38,79a13.41,13.41,0,0,1,8.74,9.39C103,82.94,97.58,77.05,94.24,74.78Z" transform="translate(-4.24 -2.91)"/><path class="cls-7" d="M83.88,5.83,79.35,9.71c7.25,4.15,9.28,8,9.39,9.39C91.33,12.88,86.58,7.66,83.88,5.83Z" transform="translate(-4.24 -2.91)"/><path class="cls-7" d="M48.35,280.55V168h62.36V280.55l41.68,108.56c2.25,5.53,1.94,15.57-17.45,15.78s-44.87.09-55.41,0c-10.54.09-36.12.21-55.41,0S4.75,394.32,6.67,389.11Z" transform="translate(-4.24 -2.91)"/><path class="cls-8" d="M79.68,404.89c-10.44.08-36.18.21-55.56,0S4.75,394.32,6.67,389.11L48.35,280.55V168h62.36V280.55l41.68,108.56c2.25,5.53,1.94,15.57-17.45,15.78s-45.12.08-55.56,0" transform="translate(-4.24 -2.91)"/><path class="cls-1" d="M77.32,299.45c-14.12-6-26.82-6.38-34,5.75a1.14,1.14,0,0,0-.1.19l-32,83.14C9,394,10.57,400.79,23.1,400.79H136c12.53,0,14.46-5.82,12.21-11.33l-35.29-91.3c-.47-1.21-2.7-1.17-3.54-.17C104,304.4,89.33,304.56,77.32,299.45Z" transform="translate(-4.24 -2.91)"/><path class="cls-9" d="M106.86,307.56l32.06,82.8c2.25,5.54.32,11.41-12.21,11.41" transform="translate(-4.24 -2.91)"/><path class="cls-10" d="M1110.89,196.73h-44v205.5h44Z" transform="translate(-4.24 -2.91)"/><path class="cls-10" d="M1050.89,196.73h-44v205.5h44Z" transform="translate(-4.24 -2.91)"/><path class="cls-10" d="M1345.52,198.88h-44v205.5h44Z" transform="translate(-4.24 -2.91)"/><path class="cls-10" d="M990.89,279.23h-42.5v124l42.5-1.5Z" transform="translate(-4.24 -2.91)"/><path class="cls-10" d="M848.89,196.23h-44l.5,206.5h43.5v-46.5l47,46.5h57l-63.5-64.5,57.5-59h-56l-42,41Z" transform="translate(-4.24 -2.91)"/><path class="cls-10" d="M449.76,311.17v-33.5h163.5v33.5Z" transform="translate(-4.24 -2.91)"/><path class="cls-10" d="M587.76,232.17h-43.5l.5,134c6,51.2,52.17,42,74.5,31l-12-35c-11.2,8-17.66.66-19.5-4Z" transform="translate(-4.24 -2.91)"/><path class="cls-10" d="M551.26,203.67l-15.5,30c-18.4-8.8-24.66,2-25.5,8.5v158.5h-42V235.17c7-25.5,20.5-45,49-43.5C540.06,192.87,549.43,200.17,551.26,203.67Z" transform="translate(-4.24 -2.91)"/><path class="cls-11" d="M300.12,290.59,290,309.07a5.15,5.15,0,0,1-6.53,2.21c-22.92-9.62-32.67-5.57-34.72-2.11-2,2.66-1.9,9,14.5,13,20.5,5,42.55,18.45,40.5,42.5-2,23.5-18.64,36-40.5,38.5-26,3-53.5-6.5-63-15l16.5-29c21.2,18,36.5,15.33,41,11.5,3.34-2.67,10.19-9.74-14-19.5-26-10.5-37.59-23.75-33-47.5,3-15.5,20.5-26.5,48.5-27,18.23-.33,32,4.18,39.13,7.76A4.41,4.41,0,0,1,300.12,290.59Z" transform="translate(-4.24 -2.91)"/><path class="cls-11" d="M791.74,292.68l-10.11,18.47a5.14,5.14,0,0,1-6.52,2.21c-22.92-9.62-32.68-5.57-34.72-2.11-2,2.67-1.9,9,14.5,13,20.5,5,42.55,18.46,40.5,42.5-2,23.5-18.64,36-40.5,38.5-26,3-53.5-6.5-63-15l16.5-29c21.2,18,36.5,15.33,41,11.5,3.33-2.67,10.19-9.73-14-19.5-26-10.5-37.6-23.75-33-47.5,3-15.5,20.5-26.5,48.5-27,18.23-.32,32,4.18,39.13,7.76A4.42,4.42,0,0,1,791.74,292.68Z" transform="translate(-4.24 -2.91)"/><path class="cls-11" d="M1219.74,293.68l-10.11,18.47a5.14,5.14,0,0,1-6.52,2.21c-22.92-9.62-32.68-5.57-34.72-2.11-2,2.67-1.9,9,14.5,13,20.5,5,42.55,18.46,40.5,42.5-2,23.5-18.64,36-40.5,38.5-26,3-53.5-6.5-63-15l16.5-29c21.2,18,36.5,15.33,41,11.5,3.33-2.67,10.19-9.73-14-19.5-26-10.5-37.6-23.75-33-47.5,3-15.5,20.5-26.5,48.5-27,18.23-.32,31.95,4.18,39.13,7.76A4.42,4.42,0,0,1,1219.74,293.68Z" transform="translate(-4.24 -2.91)"/><path class="cls-12" d="M379.26,407.17c41.43,0,75-30,75-67s-33.57-67-75-67-75,30-75,67S337.84,407.17,379.26,407.17Zm-.5-39a28,28,0,1,0-27.5-28C351.26,355.63,363.58,368.17,378.76,368.17Z" transform="translate(-4.24 -2.91)"/><ellipse cx="966.15" cy="225.82" rx="26.5" ry="26"/><path class="cls-12" d="M1453.52,391.42a58.68,58.68,0,0,1-40.5,16.46c-34,0-61.5-29.78-61.5-66.5s27.53-66.5,61.5-66.5a58.67,58.67,0,0,1,40.5,16.45V279.38H1496v123h-42.5Zm0-50a28,28,0,1,1-28-28.5A28.26,28.26,0,0,1,1453.52,341.38Z" transform="translate(-4.24 -2.91)"/><path class="cls-12" d="M1512,196.88h43v94a58.63,58.63,0,0,1,40-16c34,0,61.5,29.77,61.5,66.5s-27.54,66.5-61.5,66.5a58.59,58.59,0,0,1-40-16v10.49h-43Zm43,149.89a28.5,28.5,0,1,0,0-10.78Z" transform="translate(-4.24 -2.91)"/><path class="cls-13" d="M43.73,161.22h71.88a3.24,3.24,0,0,1,3.23,3.24h0a3.24,3.24,0,0,1-3.23,3.24H43.73a3.24,3.24,0,0,1-3.23-3.24h0A3.24,3.24,0,0,1,43.73,161.22Z" transform="translate(-4.24 -2.91)"/><path class="cls-7" d="M61.6,95.21c-3.63,2.59-1.51,4.75,0,5.51,6.48,1.81,9.6,8.31,10.36,11.33,4.92-5.44,2.05-12,0-14.57C70,95.65,65.23,92.62,61.6,95.21Z" transform="translate(-4.24 -2.91)"/><path class="cls-7" d="M100.45,121.44c-2.85,3.62.32,6.47,2.27,6.8,4.53.32,8.59,1.7,9.06,7.77.32,4.2,3.89,4.42,4.53,3.88,3.56-6.8.65-15.54-1.94-18.13C109.19,117.23,104,116.9,100.45,121.44Z" transform="translate(-4.24 -2.91)"/></svg>